<?xml version="1.0" standalone="no"?>
<!DOCTYPE svg PUBLIC "-//W3C//DTD SVG 20010904//EN"
 "http://www.w3.org/TR/2001/REC-SVG-20010904/DTD/svg10.dtd">
<svg version="1.0" xmlns="http://www.w3.org/2000/svg"
 width="700.000000pt" height="700.000000pt" viewBox="0 0 700.000000 700.000000"
 preserveAspectRatio="xMidYMid meet">
<metadata>
Created by potrace 1.14, written by Peter Selinger 2001-2017
</metadata>
<g transform="translate(0.000000,700.000000) scale(0.100000,-0.100000)"
fill="#000000" stroke="none">
<path d="M1308 4925 c-2 -1 -25 -5 -53 -9 -310 -37 -611 -183 -827 -400 -127
-127 -210 -242 -282 -390 -43 -88 -99 -243 -110 -303 -2 -15 -10 -53 -16 -83
-12 -62 -16 -358 -5 -441 46 -360 258 -715 562 -943 193 -145 424 -239 671
-273 72 -10 2343 -11 2437 -1 39 5 86 13 105 18 19 6 51 13 70 16 46 8 209 68
285 106 65 33 205 122 251 159 250 206 438 505 505 804 50 225 41 500 -23 715
l-14 45 -448 3 -447 2 38 -47 c122 -152 168 -343 129 -533 -26 -123 -86 -231
-182 -327 -45 -46 -89 -83 -97 -83 -9 0 -17 -4 -19 -8 -5 -14 -109 -59 -178
-78 -60 -16 -147 -17 -1180 -17 -613 0 -1135 3 -1159 7 -303 51 -534 323 -534
631 0 301 193 550 490 632 47 13 120 16 396 17 l338 1 53 100 c144 277 351
496 619 654 20 13 37 24 37 26 0 4 -1407 4 -1412 0z"/>
<path d="M3355 4922 c-166 -17 -359 -77 -515 -158 -373 -194 -652 -558 -734
-958 -8 -39 -18 -84 -21 -101 -4 -16 -8 -95 -10 -175 -3 -154 10 -266 46 -402
l21 -78 444 0 c244 0 444 3 444 6 0 3 -16 25 -36 47 -19 23 -51 74 -70 112
-189 388 43 845 468 919 47 8 380 11 1170 10 1013 -1 1108 -2 1168 -18 226
-60 410 -240 469 -456 30 -110 27 -259 -7 -365 -56 -172 -194 -325 -357 -395
-114 -49 -151 -53 -505 -54 l-334 -2 -49 -94 c-100 -193 -219 -342 -407 -509
-33 -30 -200 -145 -245 -169 -24 -13 1358 -14 1445 -1 30 4 75 11 100 15 62 9
224 58 285 85 28 13 52 24 55 24 26 5 226 127 286 176 78 62 238 236 293 319
110 164 191 361 225 545 20 107 20 402 0 510 -46 254 -178 518 -352 706 -74
80 -236 218 -285 244 -18 9 -52 28 -77 43 -101 62 -326 143 -438 158 -26 3
-69 10 -97 14 -46 7 -2313 10 -2380 2z"/>
</g>
</svg>
