<?xml version="1.0" encoding="utf-8"?>
<!-- Generator: Adobe Illustrator 22.1.0, SVG Export Plug-In . SVG Version: 6.00 Build 0)  -->
<svg version="1.1" id="Layer_1" xmlns="http://www.w3.org/2000/svg" xmlns:xlink="http://www.w3.org/1999/xlink" x="0px" y="0px"
	 viewBox="0 0 512 512" style="enable-background:new 0 0 512 512;" xml:space="preserve">
<style type="text/css">
	.st0{fill:#E2E5E7;}
	.st1{fill:#B0B7BD;}
	.st2{fill:#CAD1D8;}
	.st3{fill:#AAAAAA;}
	.st4{fill:#FFFFFF;}
</style>
<path class="st0" d="M128,0c-17.6,0-32,14.4-32,32v448c0,17.6,14.4,32,32,32h320c17.6,0,32-14.4,32-32V128L352,0H128z"/>
<path class="st1" d="M384,128h96L352,0v96C352,113.6,366.4,128,384,128z"/>
<polygon class="st2" points="480,224 384,128 480,128 "/>
<path class="st3" d="M416,416c0,8.8-7.2,16-16,16H48c-8.8,0-16-7.2-16-16V256c0-8.8,7.2-16,16-16h352c8.8,0,16,7.2,16,16V416z"/>
<path class="st2" d="M400,432H96v16h304c8.8,0,16-7.2,16-16v-16C416,424.8,408.8,432,400,432z"/>
<g>
	<path class="st4" d="M195.2,294.3c4.9-3.2,10.9-4.7,18.1-4.7c9.4,0,17.2,2.2,23.4,6.7c6.2,4.5,9.3,11.1,9.3,19.9
		c0,5.4-1.3,9.9-4,13.6c-1.6,2.2-4.6,5.1-9.1,8.6l-4.4,3.4c-2.4,1.9-4,4.1-4.8,6.5c-0.5,1.6-0.8,4-0.8,7.4H206
		c0.2-7,0.9-11.9,2-14.6c1.1-2.7,3.9-5.8,8.3-9.3l4.5-3.6c1.5-1.1,2.7-2.3,3.6-3.7c1.7-2.3,2.5-4.8,2.5-7.5c0-3.2-0.9-6-2.8-8.6
		c-1.8-2.6-5.2-3.9-10.1-3.9c-4.8,0-8.2,1.6-10.2,4.8c-2,3.2-3,6.5-3,10h-18C183.3,307.7,187.4,299.3,195.2,294.3z M205.6,364.4
		h18.6v18h-18.6V364.4z"/>
</g>
</svg>
