<?xml version="1.0" encoding="UTF-8"?>
<svg width="32px" height="32px" viewBox="0 0 32 32" version="1.1" xmlns="http://www.w3.org/2000/svg"
>
    <title>Ja/Nee</title>
    <g id="Ja/Nee" stroke="none" stroke-width="1" fill="none" fill-rule="evenodd">
        <path d="M9.14285714,1 C14.0872847,1 18.1130962,4.95949302 18.2803092,9.91022738 C16.5113797,10.4418692 14.9357503,11.4247356 13.6830801,12.7261581 C13.6673997,12.7004919 13.648028,12.6762814 13.6258065,12.6538462 L13.6258065,12.6538462 L11.2073733,10.2307692 L13.6294931,7.81141439 C13.802765,7.63647643 13.802765,7.35359801 13.6294931,7.17866005 L13.6294931,7.17866005 L12.1695853,5.70471464 C11.9963134,5.52977667 11.716129,5.52977667 11.5428571,5.70471464 L11.5428571,5.70471464 L9.14285714,8.14640199 L6.74654378,5.70099256 C6.57327189,5.52605459 6.29308756,5.52605459 6.11981567,5.70099256 L6.11981567,5.70099256 L4.65990783,7.17493797 C4.48663594,7.34987593 4.48663594,7.63275434 4.65990783,7.80769231 L4.65990783,7.80769231 L7.07834101,10.2307692 L4.65990783,12.6501241 C4.48663594,12.825062 4.48663594,13.1079404 4.65990783,13.2828784 L4.65990783,13.2828784 L6.11612903,14.7568238 C6.28940092,14.9317618 6.56958525,14.9317618 6.74285714,14.7568238 L6.74285714,14.7568238 L9.14285714,12.3151365 L11.5391705,14.7568238 C11.7124424,14.9317618 11.9926267,14.9317618 12.1658986,14.7568238 L12.1278096,14.7870158 C11.341374,16.1396741 10.839068,17.6810422 10.7036494,19.3275666 C10.196229,19.4156993 9.67486047,19.4615385 9.14285714,19.4615385 C4.0921659,19.4615385 0,15.3300248 0,10.2307692 C0,5.13151365 4.0921659,1 9.14285714,1 Z"
              id="Combined-Shape" fill="#374151" fill-rule="nonzero"></path>
        <path d="M30.4761905,20.2307692 C30.4761905,25.3287965 26.382808,29.4615385 21.3333333,29.4615385 C16.2838587,29.4615385 12.1904762,25.3287965 12.1904762,20.2307692 C12.1904762,15.1327419 16.2838587,11 21.3333333,11 C26.382808,11 30.4761905,15.1327419 30.4761905,20.2307692 Z M20.2757849,25.1183871 L27.0591951,18.2697519 C27.2895361,18.037196 27.2895361,17.6601117 27.0591951,17.4275558 L26.22502,16.5853598 C25.994679,16.3527667 25.6211859,16.3527667 25.390808,16.5853598 L19.858679,22.1706452 L17.2758587,19.5629901 C17.0455177,19.3304342 16.6720246,19.3304342 16.4416467,19.5629901 L15.6074716,20.4051861 C15.3771306,20.6377419 15.3771306,21.0148263 15.6074716,21.2473821 L19.441573,25.1183499 C19.6719508,25.3509429 20.0454071,25.3509429 20.2757849,25.1183871 L20.2757849,25.1183871 Z"
              id="Shape" fill="#374151" fill-rule="nonzero"></path>
    </g>
</svg>
