<?xml version="1.0" encoding="UTF-8"?>
<svg width="32px" height="32px" viewBox="0 0 32 32" version="1.1" xmlns="http://www.w3.org/2000/svg">
    <title>Nummeriek</title>
    <g id="Nummeriek" stroke="none" stroke-width="1" fill="none" fill-rule="evenodd">
        <path d="M25.443787,4 C26.8555444,4 28,5.14445555 28,6.55621302 L28,25.443787 C28,26.8555444 26.8555444,28 25.443787,28 L6.55621302,28 C5.14445555,28 4,26.8555444 4,25.443787 L4,6.55621302 C4,5.14445555 5.14445555,4 6.55621302,4 L25.443787,4 Z M11.3380944,8.21372405 L8.49801844,11.6220345 C8.14158891,11.978842 8.39471068,12.5916278 8.89953417,12.5916278 L10.6035797,12.5916278 L10.6035797,23.384611 C10.6035797,23.6983373 10.8578888,23.9526627 11.1715949,23.9526627 L12.3076253,23.9526627 C12.6213314,23.9526627 12.8756405,23.6983373 12.8756405,23.384611 L12.8756405,12.5916278 L14.579686,12.5916278 C15.0841545,12.5916278 15.3386963,11.9795521 14.9812018,11.6220345 L12.1411258,8.21372405 C11.9193323,7.99206154 11.559888,7.99206154 11.3380944,8.21372405 Z M21.3958683,17.1360418 L19.6918227,17.1360418 C19.4770561,17.1362235 19.2807564,17.2575277 19.1845142,17.4495353 L18.616499,18.5856388 C18.5282725,18.7616542 18.5374779,18.9708064 18.640827,19.1383889 C18.7441762,19.3059713 18.9269287,19.4080823 19.1238075,19.4082488 L19.6918227,19.4082488 L19.6918227,21.6804557 L19.1238075,21.6804557 C18.8101014,21.6804557 18.5557924,21.9347812 18.5557924,22.2485075 L18.5557924,23.384611 C18.5557924,23.6983373 18.8101014,23.9526627 19.1238075,23.9526627 L22.5318987,23.9526627 C22.8456048,23.9526627 23.0999138,23.6983373 23.0999138,23.384611 L23.0999138,22.2485075 C23.0999138,21.9347812 22.8456048,21.6804557 22.5318987,21.6804557 L21.9638835,21.6804557 L21.9638835,17.7040935 C21.9638835,17.3903672 21.7095744,17.1360418 21.3958683,17.1360418 Z M20.0528674,8.15052829 C19.1118052,8.40828184 18.372331,9.13664359 18.1003152,10.0737385 C17.5937166,11.8861786 18.8525803,13.5448897 20.5438455,13.7138851 C20.3208419,13.9020277 20.0714577,14.0564525 19.8036507,14.1722318 C19.5349085,14.2929428 19.4202405,14.6149571 19.513253,14.8943676 L19.8647123,15.6044323 C19.9666001,15.9108252 20.3095392,16.0833709 20.6066822,15.9562693 C22.6657372,15.0768542 23.6686391,13.7689151 23.6686391,11.2698424 L23.6686391,10.8874726 C23.667929,9.06935199 21.9503931,7.64460721 20.0528674,8.15052829 Z M20.8278531,10.1774079 C21.2199858,10.1774079 21.5378721,10.4953147 21.5378721,10.8874726 C21.5378721,11.2796305 21.2199858,11.5975373 20.8278531,11.5975373 C20.4357204,11.5975373 20.1178341,11.2796305 20.1178341,10.8874726 C20.1178341,10.4953147 20.4357204,10.1774079 20.8278531,10.1774079 Z"
              id="Combined-Shape" fill="#374151"></path>
    </g>
</svg>
