<?xml version="1.0" encoding="UTF-8"?>
<svg width="32px" height="32px" viewBox="0 0 32 32" version="1.1" xmlns="http://www.w3.org/2000/svg"
>
    <title>Openvraag</title>
    <g id="Openvraag" stroke="none" stroke-width="1" fill="none" fill-rule="evenodd">
        <path d="M26,4 C27.1045695,4 28,4.8954305 28,6 L28,26 C28,27.1045695 27.1045695,28 26,28 L6,28 C4.8954305,28 4,27.1045695 4,26 L4,6 C4,4.8954305 4.8954305,4 6,4 L26,4 Z M23.4285714,8 L8.57142857,8 C8.25583729,8 8,8.25583729 8,8.57142857 L8,8.57142857 L8,12 C8,12.3155913 8.25583729,12.5714286 8.57142857,12.5714286 L8.57142857,12.5714286 L9.71428571,12.5714286 C10.029877,12.5714286 10.2857143,12.3155913 10.2857143,12 L10.2857143,12 L10.2857143,10.8571429 L14.5714286,10.8571429 L14.5714286,21.7142857 L13.1428571,21.7142857 C12.8272659,21.7142857 12.5714286,21.970123 12.5714286,22.2857143 L12.5714286,22.2857143 L12.5714286,23.4285714 C12.5714286,23.7441627 12.8272659,24 13.1428571,24 L13.1428571,24 L18.8571429,24 C19.1727341,24 19.4285714,23.7441627 19.4285714,23.4285714 L19.4285714,23.4285714 L19.4285714,22.2857143 C19.4285714,21.970123 19.1727341,21.7142857 18.8571429,21.7142857 L18.8571429,21.7142857 L17.4285714,21.7142857 L17.4285714,10.8571429 L21.7142857,10.8571429 L21.7142857,12 C21.7142857,12.3155913 21.970123,12.5714286 22.2857143,12.5714286 L22.2857143,12.5714286 L23.4285714,12.5714286 C23.7441627,12.5714286 24,12.3155913 24,12 L24,12 L24,8.57142857 C24,8.25583729 23.7441627,8 23.4285714,8 L23.4285714,8 Z"
              id="Combined-Shape" fill="#374151"></path>
    </g>
</svg>
