<?xml version="1.0" encoding="UTF-8"?>
<svg width="32px" height="32px" viewBox="0 0 32 32" version="1.1" xmlns="http://www.w3.org/2000/svg"
>
    <title>7-schaals</title>
    <g id="7-schaals" stroke="none" stroke-width="1" fill="#374151" fill-rule="evenodd">
        <path d="M26.921875,4 C27.517307,4 28,4.482693 28,5.078125 L28,26.921875 C28,27.517307 27.517307,28 26.921875,28 L5.078125,28 C4.482693,28 4,27.517307 4,26.921875 L4,5.078125 C4,4.482693 4.482693,4 5.078125,4 L26.921875,4 Z M10.0337275,20.96875 L8.021875,20.96875 C7.48339737,20.96875 7.046875,21.4052724 7.046875,21.94375 L7.046875,21.94375 L7.046875,23.978125 C7.046875,24.5166026 7.48339737,24.953125 8.021875,24.953125 L8.021875,24.953125 L10.0337275,24.953125 C10.5722051,24.953125 11.0087275,24.5166026 11.0087275,23.978125 L11.0087275,23.978125 L11.0087275,21.94375 C11.0087275,21.4052724 10.5722051,20.96875 10.0337275,20.96875 L10.0337275,20.96875 Z M10.0337275,13.984375 L8.021875,13.984375 C7.48339737,13.984375 7.046875,14.4208974 7.046875,14.959375 L7.046875,14.959375 L7.046875,16.99375 C7.046875,17.5322276 7.48339737,17.96875 8.021875,17.96875 L8.021875,17.96875 L10.0337275,17.96875 C10.5722051,17.96875 11.0087275,17.5322276 11.0087275,16.99375 L11.0087275,16.99375 L11.0087275,14.959375 C11.0087275,14.4208974 10.5722051,13.984375 10.0337275,13.984375 L10.0337275,13.984375 Z M16.99558,13.984375 L14.9837275,13.984375 C14.4452498,13.984375 14.0087275,14.4208974 14.0087275,14.959375 L14.0087275,14.959375 L14.0087275,16.99375 C14.0087275,17.5322276 14.4452498,17.96875 14.9837275,17.96875 L14.9837275,17.96875 L16.99558,17.96875 C17.5340576,17.96875 17.97058,17.5322276 17.97058,16.99375 L17.97058,16.99375 L17.97058,14.959375 C17.97058,14.4208974 17.5340576,13.984375 16.99558,13.984375 L16.99558,13.984375 Z M23.9574324,13.984375 L21.94558,13.984375 C21.4071023,13.984375 20.97058,14.4208974 20.97058,14.959375 L20.97058,14.959375 L20.97058,16.99375 C20.97058,17.5322276 21.4071023,17.96875 21.94558,17.96875 L21.94558,17.96875 L23.9574324,17.96875 C24.4959101,17.96875 24.9324324,17.5322276 24.9324324,16.99375 L24.9324324,16.99375 L24.9324324,14.959375 C24.9324324,14.4208974 24.4959101,13.984375 23.9574324,13.984375 L23.9574324,13.984375 Z M10.0337275,7 L8.021875,7 C7.48339737,7 7.046875,7.43652237 7.046875,7.975 L7.046875,7.975 L7.046875,10.009375 C7.046875,10.5478526 7.48339737,10.984375 8.021875,10.984375 L8.021875,10.984375 L10.0337275,10.984375 C10.5722051,10.984375 11.0087275,10.5478526 11.0087275,10.009375 L11.0087275,10.009375 L11.0087275,7.975 C11.0087275,7.43652237 10.5722051,7 10.0337275,7 L10.0337275,7 Z M16.99558,7 L14.9837275,7 C14.4452498,7 14.0087275,7.43652237 14.0087275,7.975 L14.0087275,7.975 L14.0087275,10.009375 C14.0087275,10.5478526 14.4452498,10.984375 14.9837275,10.984375 L14.9837275,10.984375 L16.99558,10.984375 C17.5340576,10.984375 17.97058,10.5478526 17.97058,10.009375 L17.97058,10.009375 L17.97058,7.975 C17.97058,7.43652237 17.5340576,7 16.99558,7 L16.99558,7 Z M23.9574324,7 L21.94558,7 C21.4071023,7 20.97058,7.43652237 20.97058,7.975 L20.97058,7.975 L20.97058,10.009375 C20.97058,10.5478526 21.4071023,10.984375 21.94558,10.984375 L21.94558,10.984375 L23.9574324,10.984375 C24.4959101,10.984375 24.9324324,10.5478526 24.9324324,10.009375 L24.9324324,10.009375 L24.9324324,7.975 C24.9324324,7.43652237 24.4959101,7 23.9574324,7 L23.9574324,7 Z"
              id="Combined-Shape" fill="#374151"></path>
    </g>
</svg>
