<?xml version="1.0" encoding="UTF-8"?>
<svg width="32px" height="32px" viewBox="0 0 32 32" version="1.1" xmlns="http://www.w3.org/2000/svg"
>
    <title>Verbatim</title>
    <g id="Verbatim" stroke="none" stroke-width="1" fill="none" fill-rule="evenodd">
        <g id="Group" transform="translate(4.000000, 5.000000)" fill="#374151">
            <path d="M22.1539279,6.47537686 L1.84624917,6.47537686 C1.59610533,6.47537686 1.37977429,6.56574728 1.197079,6.74648813 C1.01438371,6.92722898 0.92303607,7.14124576 0.92303607,7.38853848 L0.92303607,21.0866632 C0.92303607,21.333956 1.01438371,21.5481479 1.197079,21.7287136 C1.37977429,21.9094544 1.59610533,22 1.84624917,22 L22.1539279,22 C22.4038947,22 22.6202257,21.9094544 22.802921,21.7287136 C22.9854393,21.5481479 23.0767869,21.333956 23.0767869,21.0866632 L23.0767869,7.38853848 C23.0767869,7.14107063 22.9857933,6.92722898 22.802921,6.74648813 C22.6204027,6.56574728 22.4040717,6.47537686 22.1539279,6.47537686 L22.1539279,6.47537686 Z M14.4950653,10.7702488 C14.31237,10.9509896 14.0960389,11.0413601 13.8460721,11.0413601 L10.1537508,11.0413601 C9.90378402,11.0413601 9.68745298,10.9509896 9.50475769,10.7702488 C9.3220624,10.5895079 9.23071476,10.3754912 9.23071476,10.1280233 C9.23071476,9.88073061 9.3220624,9.66671383 9.50475769,9.48597298 C9.68745298,9.30523213 9.90378402,9.21486171 10.1537508,9.21486171 L13.8464262,9.21486171 C14.096216,9.21486171 14.312547,9.30523213 14.4954193,9.48597298 C14.6779376,9.66671383 14.7692852,9.88073061 14.7692852,10.1280233 C14.7692852,10.3754912 14.6777606,10.5895079 14.4950653,10.7702488 L14.4950653,10.7702488 Z"
                  id="Shape"></path>
            <path d="M23.7261341,0.271111274 C23.5434388,0.0903704245 23.3271078,0 23.077141,0 L0.92303607,0 C0.673069263,0 0.456738216,0.0903704245 0.27404293,0.271111274 C0.0913476433,0.451852123 0,0.665868903 0,0.913161615 L0,4.56598321 C0,4.81327592 0.0913476433,5.0272927 0.27404293,5.20803355 C0.456738216,5.3887744 0.673069263,5.47914483 0.92303607,5.47914483 L23.0767869,5.47914483 C23.3267537,5.47914483 23.5432618,5.3887744 23.7261341,5.20803355 C23.9086524,5.0272927 24,4.81327592 24,4.56598321 L24,0.913161615 C24,0.665693767 23.9088294,0.451852123 23.7261341,0.271111274 L23.7261341,0.271111274 Z"
                  id="Shape"></path>
        </g>
    </g>
</svg>
