<?xml version="1.0" encoding="UTF-8"?>
<svg width="712px" height="108px" viewBox="0 0 712 108" version="1.1" xmlns="http://www.w3.org/2000/svg" xmlns:xlink="http://www.w3.org/1999/xlink">
    <title>trackingcoach-logo-primary-fullcolor-rgb</title>
    <defs>
        <polygon id="path-1" points="0 0 263.859 0 263.859 107.6 0 107.6"></polygon>
    </defs>
    <g id="trackingcoach-logo-primary-fullcolor-rgb" stroke="none" stroke-width="1" fill="none" fill-rule="evenodd">
        <g id="Group-4" transform="translate(0.060000, 0.340000)">
            <mask id="mask-2" fill="white">
                <use xlink:href="#path-1"></use>
            </mask>
            <g id="Clip-2"></g>
            <path d="M210.024,0 L131.895,0 C116.538,0 102.659,6.467 92.835,16.823 C89.272,20.583 86.239,24.865 83.877,29.531 C82.667,31.894 81.633,34.364 80.796,36.914 C79.024,42.239 78.069,47.919 78.069,53.825 C78.069,59.731 79.024,65.421 80.796,70.746 L114.481,70.746 C110.229,66.376 107.6,60.4 107.6,53.825 C107.6,47.25 110.229,41.284 114.481,36.914 C118.891,32.356 125.073,29.531 131.895,29.531 L210.024,29.531 C223.421,29.531 234.328,40.428 234.328,53.825 C234.328,67.223 223.421,78.129 210.024,78.129 L188.072,78.129 C185.218,84.705 181.241,90.68 176.388,95.818 C171.939,100.533 166.751,104.55 161.012,107.66 L210.024,107.66 C239.703,107.66 263.859,83.504 263.859,53.825 C263.859,24.146 239.703,0 210.024,0" id="Fill-1" fill="#A29D94" mask="url(#mask-2)"></path>
            <path d="M183.003,36.914 L149.318,36.914 C153.57,41.284 156.198,47.25 156.198,53.825 C156.198,60.4 153.57,66.376 149.318,70.746 C144.898,75.294 138.716,78.129 131.895,78.129 L53.765,78.129 C40.368,78.129 29.471,67.223 29.471,53.825 C29.471,40.428 40.368,29.531 53.765,29.531 L75.717,29.531 C78.572,22.956 82.548,16.97 87.401,11.832 C91.85,7.127 97.028,3.121 102.757,0 L53.765,0 C24.087,0 -0.06,24.146 -0.06,53.825 C-0.06,83.504 24.087,107.66 53.765,107.66 L131.895,107.66 C147.251,107.66 161.14,101.193 170.964,90.828 C174.518,87.067 177.549,82.795 179.912,78.129 C181.123,75.767 182.156,73.296 183.003,70.746 C184.775,65.421 185.73,59.731 185.73,53.825 C185.73,47.919 184.775,42.239 183.003,36.914" id="Fill-3" fill="#FAD038" mask="url(#mask-2)"></path>
        </g>
        <polyline id="Fill-5" fill="#FAD038" points="304.809 37.258 292.274 37.258 292.274 28.695 327.025 28.695 327.025 37.258 314.49 37.258 314.49 72.63 304.809 72.63 304.809 37.258"></polyline>
        <path d="M325.039,42.471 L334.347,42.471 L334.347,47.312 L334.471,47.312 C335.464,45.449 336.643,44.054 338.008,43.123 C339.374,42.192 341.09,41.726 343.159,41.726 C343.696,41.726 344.234,41.747 344.773,41.788 C345.31,41.83 345.806,41.913 346.262,42.037 L346.262,50.538 C345.6,50.331 344.948,50.177 344.307,50.072 C343.666,49.97 342.993,49.918 342.29,49.918 C340.511,49.918 339.104,50.166 338.071,50.662 C337.036,51.158 336.24,51.853 335.682,52.741 C335.123,53.632 334.76,54.695 334.595,55.937 C334.43,57.179 334.347,58.543 334.347,60.032 L334.347,72.63 L325.039,72.63 L325.039,42.471" id="Fill-6" fill="#FAD038"></path>
        <path d="M366.926,59.411 C366.222,59.411 365.343,59.443 364.289,59.505 C363.234,59.568 362.219,59.743 361.249,60.032 C360.275,60.322 359.448,60.758 358.765,61.336 C358.084,61.916 357.742,62.722 357.742,63.756 C357.742,64.873 358.216,65.701 359.17,66.237 C360.12,66.777 361.113,67.045 362.148,67.045 C363.057,67.045 363.937,66.921 364.785,66.673 C365.632,66.424 366.387,66.073 367.05,65.618 C367.712,65.163 368.239,64.584 368.632,63.88 C369.025,63.177 369.221,62.35 369.221,61.399 L369.221,59.411 L366.926,59.411 Z M369.221,68.844 L369.098,68.844 C368.063,70.458 366.687,71.617 364.97,72.32 C363.254,73.023 361.444,73.375 359.542,73.375 C358.134,73.375 356.78,73.178 355.477,72.785 C354.173,72.392 353.026,71.803 352.033,71.016 C351.04,70.231 350.254,69.258 349.675,68.1 C349.095,66.942 348.806,65.597 348.806,64.067 C348.806,62.329 349.126,60.861 349.768,59.66 C350.408,58.461 351.277,57.468 352.374,56.682 C353.469,55.896 354.721,55.285 356.129,54.851 C357.534,54.417 358.993,54.097 360.504,53.889 C362.012,53.683 363.522,53.558 365.033,53.517 C366.543,53.476 367.939,53.455 369.221,53.455 C369.221,51.8 368.632,50.486 367.454,49.514 C366.274,48.542 364.879,48.056 363.265,48.056 C361.734,48.056 360.338,48.377 359.076,49.018 C357.813,49.659 356.687,50.538 355.694,51.655 L350.73,46.567 C352.467,44.953 354.494,43.743 356.811,42.937 C359.128,42.129 361.527,41.726 364.009,41.726 C366.74,41.726 368.984,42.068 370.742,42.75 C372.5,43.433 373.907,44.437 374.962,45.759 C376.016,47.084 376.751,48.708 377.165,50.631 C377.578,52.555 377.786,54.78 377.786,57.302 L377.786,72.63 L369.221,72.63 L369.221,68.844 L369.221,68.844 Z" id="Fill-7" fill="#FAD038"></path>
        <path d="M404.035,52.214 C403.579,51.553 402.937,51.003 402.111,50.569 C401.283,50.135 400.393,49.918 399.442,49.918 C397.085,49.918 395.254,50.622 393.951,52.028 C392.647,53.435 391.996,55.276 391.996,57.551 C391.996,59.826 392.647,61.667 393.951,63.073 C395.254,64.48 397.085,65.183 399.442,65.183 C400.476,65.183 401.366,64.956 402.111,64.501 C402.855,64.046 403.496,63.508 404.035,62.888 L410.177,69.342 C408.729,70.831 407.023,71.876 405.058,72.476 C403.093,73.074 401.22,73.375 399.442,73.375 C397.125,73.375 394.943,73.003 392.895,72.258 C390.847,71.513 389.068,70.448 387.558,69.062 C386.048,67.676 384.859,66.011 383.991,64.067 C383.122,62.122 382.687,59.95 382.687,57.551 C382.687,55.152 383.122,52.98 383.991,51.034 C384.859,49.091 386.048,47.426 387.558,46.039 C389.068,44.653 390.847,43.589 392.895,42.843 C394.943,42.098 397.125,41.726 399.442,41.726 C401.22,41.726 403.093,42.027 405.058,42.626 C407.023,43.226 408.729,44.27 410.177,45.759 L404.035,52.214" id="Fill-8" fill="#FAD038"></path>
        <polyline id="Fill-9" fill="#FAD038" points="413.528 25.716 422.837 25.716 422.837 54.385 433.138 42.471 444.556 42.471 432.58 56.062 444.867 72.63 433.138 72.63 422.961 57.364 422.837 57.364 422.837 72.63 413.528 72.63 413.528 25.716"></polyline>
        <path d="M448.156,72.63 L457.464,72.63 L457.464,42.471 L448.156,42.471 L448.156,72.63 Z M447.411,32.977 C447.411,31.487 447.939,30.215 448.994,29.16 C450.048,28.105 451.321,27.577 452.81,27.577 C454.299,27.577 455.572,28.105 456.627,29.16 C457.681,30.215 458.209,31.487 458.209,32.977 C458.209,34.466 457.681,35.738 456.627,36.793 C455.572,37.848 454.299,38.376 452.81,38.376 C451.321,38.376 450.048,37.848 448.994,36.793 C447.939,35.738 447.411,34.466 447.411,32.977 L447.411,32.977 Z" id="Fill-10" fill="#FAD038"></path>
        <path d="M464.166,42.471 L473.101,42.471 L473.101,46.567 L473.225,46.567 C473.514,45.988 473.928,45.408 474.466,44.829 C475.005,44.25 475.646,43.734 476.39,43.278 C477.135,42.823 477.982,42.45 478.934,42.16 C479.885,41.872 480.921,41.726 482.038,41.726 C484.395,41.726 486.297,42.089 487.747,42.812 C489.194,43.536 490.322,44.54 491.129,45.821 C491.935,47.105 492.483,48.614 492.773,50.352 C493.062,52.089 493.208,53.972 493.208,55.999 L493.208,72.63 L483.899,72.63 L483.899,57.861 C483.899,56.992 483.868,56.092 483.806,55.162 C483.744,54.23 483.558,53.373 483.248,52.586 C482.937,51.8 482.461,51.158 481.82,50.662 C481.178,50.166 480.258,49.918 479.059,49.918 C477.859,49.918 476.886,50.135 476.142,50.569 C475.398,51.003 474.828,51.584 474.435,52.307 C474.042,53.031 473.784,53.848 473.66,54.757 C473.536,55.668 473.474,56.62 473.474,57.612 L473.474,72.63 L464.166,72.63 L464.166,42.471" id="Fill-11" fill="#FAD038"></path>
        <path d="M507.976,57.364 C507.976,58.357 508.163,59.298 508.535,60.188 C508.907,61.078 509.434,61.863 510.117,62.545 C510.799,63.229 511.586,63.777 512.475,64.191 C513.364,64.605 514.346,64.811 515.422,64.811 C516.457,64.811 517.429,64.605 518.339,64.191 C519.249,63.777 520.046,63.229 520.729,62.545 C521.411,61.863 521.939,61.078 522.311,60.188 C522.683,59.298 522.869,58.357 522.869,57.364 C522.869,56.371 522.683,55.431 522.311,54.541 C521.939,53.652 521.411,52.865 520.729,52.182 C520.046,51.501 519.249,50.952 518.339,50.538 C517.429,50.125 516.457,49.918 515.422,49.918 C514.346,49.918 513.364,50.125 512.475,50.538 C511.586,50.952 510.799,51.501 510.117,52.182 C509.434,52.865 508.907,53.652 508.535,54.541 C508.163,55.431 507.976,56.371 507.976,57.364 Z M531.433,70.086 C531.433,75.795 529.995,80.128 527.12,83.086 C524.245,86.043 519.87,87.524 513.996,87.524 C511.306,87.524 508.659,87.223 506.052,86.624 C503.446,86.024 501.047,84.855 498.854,83.117 L504.005,75.423 C505.453,76.622 506.972,77.573 508.566,78.277 C510.158,78.98 511.906,79.331 513.809,79.331 C516.664,79.331 518.763,78.639 520.108,77.253 C521.452,75.867 522.125,74.098 522.125,71.947 L522.125,69.03 L522.001,69.03 C520.924,70.48 519.59,71.504 517.998,72.103 C516.405,72.702 514.905,73.003 513.499,73.003 C511.265,73.003 509.238,72.62 507.418,71.855 C505.596,71.089 504.036,70.015 502.732,68.627 C501.429,67.241 500.425,65.597 499.723,63.694 C499.019,61.791 498.668,59.702 498.668,57.426 C498.668,55.441 498.988,53.496 499.63,51.593 C500.27,49.691 501.181,48.015 502.36,46.567 C503.539,45.119 504.976,43.95 506.672,43.061 C508.369,42.172 510.293,41.726 512.444,41.726 C513.768,41.726 514.977,41.872 516.074,42.16 C517.171,42.45 518.153,42.823 519.022,43.278 C519.891,43.734 520.635,44.239 521.256,44.798 C521.877,45.356 522.373,45.906 522.746,46.443 L522.869,46.443 L522.869,42.471 L531.433,42.471 L531.433,70.086 L531.433,70.086 Z" id="Fill-12" fill="#FAD038"></path>
        <path d="M568.79,40.112 C567.838,38.955 566.67,38.065 565.284,37.444 C563.897,36.824 562.295,36.513 560.474,36.513 C558.654,36.513 556.968,36.865 555.417,37.569 C553.866,38.273 552.521,39.255 551.383,40.516 C550.245,41.778 549.356,43.278 548.715,45.015 C548.073,46.753 547.754,48.635 547.754,50.662 C547.754,52.732 548.073,54.624 548.715,56.34 C549.356,58.058 550.235,59.547 551.352,60.809 C552.469,62.071 553.783,63.053 555.294,63.756 C556.802,64.46 558.426,64.811 560.165,64.811 C562.15,64.811 563.908,64.398 565.439,63.57 C566.969,62.743 568.232,61.584 569.224,60.095 L577.292,66.114 C575.43,68.721 573.072,70.645 570.217,71.886 C567.363,73.126 564.424,73.747 561.406,73.747 C557.971,73.747 554.806,73.208 551.911,72.133 C549.014,71.059 546.512,69.517 544.402,67.511 C542.293,65.504 540.648,63.073 539.468,60.219 C538.29,57.364 537.7,54.179 537.7,50.662 C537.7,47.146 538.29,43.961 539.468,41.106 C540.648,38.252 542.293,35.821 544.402,33.814 C546.512,31.808 549.014,30.267 551.911,29.191 C554.806,28.116 557.971,27.577 561.406,27.577 C562.647,27.577 563.939,27.692 565.284,27.92 C566.628,28.147 567.953,28.508 569.255,29.005 C570.559,29.501 571.809,30.164 573.009,30.991 C574.21,31.819 575.285,32.832 576.237,34.031 L568.79,40.112" id="Fill-13" fill="#A29D94"></path>
        <path d="M589.579,57.551 C589.579,59.826 590.23,61.667 591.534,63.073 C592.837,64.48 594.668,65.183 597.026,65.183 C599.383,65.183 601.214,64.48 602.517,63.073 C603.821,61.667 604.472,59.826 604.472,57.551 C604.472,55.276 603.821,53.435 602.517,52.028 C601.214,50.622 599.383,49.918 597.026,49.918 C594.668,49.918 592.837,50.622 591.534,52.028 C590.23,53.435 589.579,55.276 589.579,57.551 Z M580.27,57.551 C580.27,55.152 580.705,52.98 581.574,51.034 C582.442,49.091 583.631,47.426 585.142,46.039 C586.651,44.653 588.431,43.589 590.479,42.843 C592.526,42.098 594.708,41.726 597.026,41.726 C599.342,41.726 601.525,42.098 603.573,42.843 C605.62,43.589 607.399,44.653 608.91,46.039 C610.419,47.426 611.608,49.091 612.477,51.034 C613.346,52.98 613.781,55.152 613.781,57.551 C613.781,59.95 613.346,62.122 612.477,64.067 C611.608,66.011 610.419,67.676 608.91,69.062 C607.399,70.448 605.62,71.513 603.573,72.258 C601.525,73.003 599.342,73.375 597.026,73.375 C594.708,73.375 592.526,73.003 590.479,72.258 C588.431,71.513 586.651,70.448 585.142,69.062 C583.631,67.676 582.442,66.011 581.574,64.067 C580.705,62.122 580.27,59.95 580.27,57.551 L580.27,57.551 Z" id="Fill-14" fill="#A29D94"></path>
        <path d="M635.871,59.411 C635.167,59.411 634.289,59.443 633.234,59.505 C632.178,59.568 631.165,59.743 630.193,60.032 C629.22,60.322 628.393,60.758 627.711,61.336 C627.028,61.916 626.687,62.722 626.687,63.756 C626.687,64.873 627.162,65.701 628.114,66.237 C629.065,66.777 630.058,67.045 631.092,67.045 C632.003,67.045 632.881,66.921 633.73,66.673 C634.578,66.424 635.333,66.073 635.996,65.618 C636.656,65.163 637.183,64.584 637.578,63.88 C637.97,63.177 638.167,62.35 638.167,61.399 L638.167,59.411 L635.871,59.411 Z M638.167,68.844 L638.043,68.844 C637.008,70.458 635.632,71.617 633.916,72.32 C632.199,73.023 630.388,73.375 628.486,73.375 C627.08,73.375 625.725,73.178 624.422,72.785 C623.119,72.392 621.97,71.803 620.978,71.016 C619.985,70.231 619.198,69.258 618.62,68.1 C618.04,66.942 617.751,65.597 617.751,64.067 C617.751,62.329 618.071,60.861 618.713,59.66 C619.354,58.461 620.222,57.468 621.319,56.682 C622.415,55.896 623.667,55.285 625.073,54.851 C626.479,54.417 627.938,54.097 629.449,53.889 C630.958,53.683 632.467,53.558 633.978,53.517 C635.488,53.476 636.884,53.455 638.167,53.455 C638.167,51.8 637.578,50.486 636.398,49.514 C635.219,48.542 633.823,48.056 632.21,48.056 C630.679,48.056 629.283,48.377 628.021,49.018 C626.758,49.659 625.631,50.538 624.639,51.655 L619.674,46.567 C621.412,44.953 623.439,43.743 625.756,42.937 C628.072,42.129 630.472,41.726 632.955,41.726 C635.685,41.726 637.928,42.068 639.687,42.75 C641.445,43.433 642.852,44.437 643.907,45.759 C644.962,47.084 645.696,48.708 646.11,50.631 C646.523,52.555 646.731,54.78 646.731,57.302 L646.731,72.63 L638.167,72.63 L638.167,68.844 L638.167,68.844 Z" id="Fill-15" fill="#A29D94"></path>
        <path d="M672.98,52.214 C672.524,51.553 671.882,51.003 671.056,50.569 C670.228,50.135 669.339,49.918 668.387,49.918 C666.03,49.918 664.199,50.622 662.896,52.028 C661.592,53.435 660.941,55.276 660.941,57.551 C660.941,59.826 661.592,61.667 662.896,63.073 C664.199,64.48 666.03,65.183 668.387,65.183 C669.422,65.183 670.311,64.956 671.056,64.501 C671.8,64.046 672.441,63.508 672.98,62.888 L679.124,69.342 C677.674,70.831 675.968,71.876 674.004,72.476 C672.039,73.074 670.166,73.375 668.387,73.375 C666.07,73.375 663.888,73.003 661.84,72.258 C659.793,71.513 658.013,70.448 656.504,69.062 C654.994,67.676 653.804,66.011 652.936,64.067 C652.067,62.122 651.632,59.95 651.632,57.551 C651.632,55.152 652.067,52.98 652.936,51.034 C653.804,49.091 654.994,47.426 656.504,46.039 C658.013,44.653 659.793,43.589 661.84,42.843 C663.888,42.098 666.07,41.726 668.387,41.726 C670.166,41.726 672.039,42.027 674.004,42.626 C675.968,43.226 677.674,44.27 679.124,45.759 L672.98,52.214" id="Fill-16" fill="#A29D94"></path>
        <path d="M691.782,25.716 L691.782,46.567 L691.906,46.567 C692.113,45.988 692.464,45.408 692.961,44.829 C693.458,44.25 694.057,43.734 694.761,43.278 C695.464,42.823 696.291,42.45 697.243,42.16 C698.194,41.872 699.229,41.726 700.345,41.726 C702.704,41.726 704.606,42.089 706.055,42.812 C707.503,43.536 708.63,44.54 709.437,45.821 C710.244,47.105 710.792,48.614 711.082,50.352 C711.371,52.089 711.516,53.972 711.516,55.999 L711.516,72.63 L702.208,72.63 L702.208,57.861 C702.208,56.992 702.176,56.092 702.115,55.162 C702.052,54.23 701.867,53.373 701.556,52.586 C701.246,51.8 700.769,51.158 700.129,50.662 C699.487,50.166 698.567,49.918 697.368,49.918 C696.167,49.918 695.195,50.135 694.451,50.569 C693.706,51.003 693.136,51.584 692.744,52.307 C692.35,53.031 692.092,53.848 691.968,54.757 C691.844,55.668 691.782,56.62 691.782,57.612 L691.782,72.63 L682.473,72.63 L682.473,25.716 L691.782,25.716" id="Fill-17" fill="#A29D94"></path>
    </g>
</svg>