<?xml version="1.0" encoding="UTF-8"?>
<svg width="264px" height="108px" viewBox="0 0 264 108" version="1.1" xmlns="http://www.w3.org/2000/svg" xmlns:xlink="http://www.w3.org/1999/xlink">
    <title>trackingcoach copy</title>
    <defs>
        <polygon id="path-1" points="0 0 263.859 0 263.859 107.6 0 107.6"></polygon>
        <polygon id="path-3" points="0 0 263.859 0 263.859 107.6 0 107.6"></polygon>
    </defs>
    <g id="Page-1" stroke="none" stroke-width="1" fill="none" fill-rule="evenodd">
        <g id="Group-4" transform="translate(0.000000, -0.000000)">
            <g id="Fill-1-Clipped">
                <mask id="mask-2" fill="white">
                    <use xlink:href="#path-1"></use>
                </mask>
                <g id="path-1"></g>
                <path d="M210.024,0 L131.895,0 C116.538,0 102.659,6.467 92.835,16.823 C89.272,20.583 86.239,24.865 83.877,29.531 C82.667,31.894 81.633,34.364 80.796,36.914 C79.024,42.239 78.069,47.919 78.069,53.825 C78.069,59.731 79.024,65.421 80.796,70.746 L114.481,70.746 C110.229,66.376 107.6,60.4 107.6,53.825 C107.6,47.25 110.229,41.284 114.481,36.914 C118.891,32.356 125.073,29.531 131.895,29.531 L210.024,29.531 C223.421,29.531 234.328,40.428 234.328,53.825 C234.328,67.223 223.421,78.129 210.024,78.129 L188.072,78.129 C185.218,84.705 181.241,90.68 176.388,95.818 C171.939,100.533 166.751,104.55 161.012,107.66 L210.024,107.66 C239.703,107.66 263.859,83.504 263.859,53.825 C263.859,24.146 239.703,0 210.024,0" id="Fill-1" fill="#A29D94" fill-rule="nonzero" mask="url(#mask-2)"></path>
            </g>
            <g id="Fill-3-Clipped">
                <mask id="mask-4" fill="white">
                    <use xlink:href="#path-3"></use>
                </mask>
                <g id="path-1"></g>
                <path d="M183.003,36.914 L149.318,36.914 C153.57,41.284 156.198,47.25 156.198,53.825 C156.198,60.4 153.57,66.376 149.318,70.746 C144.898,75.294 138.716,78.129 131.895,78.129 L53.765,78.129 C40.368,78.129 29.471,67.223 29.471,53.825 C29.471,40.428 40.368,29.531 53.765,29.531 L75.717,29.531 C78.572,22.956 82.548,16.97 87.401,11.832 C91.85,7.127 97.028,3.121 102.757,0 L53.765,0 C24.087,0 -0.06,24.146 -0.06,53.825 C-0.06,83.504 24.087,107.66 53.765,107.66 L131.895,107.66 C147.251,107.66 161.14,101.193 170.964,90.828 C174.518,87.067 177.549,82.795 179.912,78.129 C181.123,75.767 182.156,73.296 183.003,70.746 C184.775,65.421 185.73,59.731 185.73,53.825 C185.73,47.919 184.775,42.239 183.003,36.914" id="Fill-3" fill="#FAD038" fill-rule="nonzero" mask="url(#mask-4)"></path>
            </g>
        </g>
    </g>
</svg>